<?xml version="1.0" encoding="UTF-8" standalone="no"?>
<!DOCTYPE svg PUBLIC "-//W3C//DTD SVG 1.1//EN"
 "http://www.w3.org/Graphics/SVG/1.1/DTD/svg11.dtd">
<!-- Generated by graphviz version 2.40.1 (20161225.0304)
 -->
<!-- Title: public.chat_message Pages: 1 -->
<svg width="705pt" height="532pt"
 viewBox="0.00 0.00 705.00 532.00" xmlns="http://www.w3.org/2000/svg" xmlns:xlink="http://www.w3.org/1999/xlink">
<g id="graph0" class="graph" transform="scale(1 1) rotate(0) translate(4 528)">
<title>public.chat_message</title>
<polygon fill="#ffffff" stroke="transparent" points="-4,4 -4,-528 701,-528 701,4 -4,4"/>
<!-- public.chat_message -->
<g id="node1" class="node">
<title>public.chat_message</title>
<polygon fill="#efefef" stroke="transparent" points="46,-442.5 46,-477.5 356,-477.5 356,-442.5 46,-442.5"/>
<polygon fill="none" stroke="#000000" points="46,-442.5 46,-477.5 356,-477.5 356,-442.5 46,-442.5"/>
<text text-anchor="start" x="52.6925" y="-455.3" font-family="Arial Bold" font-size="18.00" fill="#000000">public.chat_message</text>
<text text-anchor="start" x="221.7395" y="-455.3" font-family="Arial" font-size="14.00" fill="#000000">    </text>
<text text-anchor="start" x="255.9443" y="-455.3" font-family="Arial" font-size="14.00" fill="#666666">[BASE TABLE]</text>
<polygon fill="none" stroke="#000000" points="46,-412.5 46,-442.5 356,-442.5 356,-412.5 46,-412.5"/>
<text text-anchor="start" x="53" y="-423.9" font-family="Arial" font-size="14.00" fill="#000000">chat_id </text>
<text text-anchor="start" x="102.0182" y="-423.9" font-family="Arial" font-size="14.00" fill="#666666">[uuid]</text>
<polygon fill="none" stroke="#000000" points="46,-382.5 46,-412.5 356,-412.5 356,-382.5 46,-382.5"/>
<text text-anchor="start" x="53" y="-393.9" font-family="Arial" font-size="14.00" fill="#000000">message </text>
<text text-anchor="start" x="113.6816" y="-393.9" font-family="Arial" font-size="14.00" fill="#666666">[varchar(1024)]</text>
<polygon fill="none" stroke="#000000" points="46,-352.5 46,-382.5 356,-382.5 356,-352.5 46,-352.5"/>
<text text-anchor="start" x="53" y="-363.9" font-family="Arial" font-size="14.00" fill="#000000">id </text>
<text text-anchor="start" x="67.7798" y="-363.9" font-family="Arial" font-size="14.00" fill="#666666">[uuid]</text>
<polygon fill="none" stroke="#000000" points="46,-322.5 46,-352.5 356,-352.5 356,-322.5 46,-322.5"/>
<text text-anchor="start" x="53" y="-333.9" font-family="Arial" font-size="14.00" fill="#000000">created_at </text>
<text text-anchor="start" x="123.028" y="-333.9" font-family="Arial" font-size="14.00" fill="#666666">[timestamp with time zone]</text>
<polygon fill="none" stroke="#000000" stroke-width="3" points="44.5,-321.5 44.5,-479.5 357.5,-479.5 357.5,-321.5 44.5,-321.5"/>
</g>
<!-- public.chat -->
<g id="node2" class="node">
<title>public.chat</title>
<polygon fill="#efefef" stroke="transparent" points="61,-162.5 61,-197.5 341,-197.5 341,-162.5 61,-162.5"/>
<polygon fill="none" stroke="#000000" points="61,-162.5 61,-197.5 341,-197.5 341,-162.5 61,-162.5"/>
<text text-anchor="start" x="94.2041" y="-175.3" font-family="Arial Bold" font-size="18.00" fill="#000000">public.chat</text>
<text text-anchor="start" x="180.2279" y="-175.3" font-family="Arial" font-size="14.00" fill="#000000">    </text>
<text text-anchor="start" x="214.4327" y="-175.3" font-family="Arial" font-size="14.00" fill="#666666">[BASE TABLE]</text>
<polygon fill="none" stroke="#000000" points="61,-132.5 61,-162.5 341,-162.5 341,-132.5 61,-132.5"/>
<text text-anchor="start" x="68" y="-143.9" font-family="Arial" font-size="14.00" fill="#000000">user_id_1    </text>
<text text-anchor="start" x="163.6676" y="-143.9" font-family="Arial" font-size="14.00" fill="#666666">[uuid]</text>
<polygon fill="none" stroke="#000000" points="61,-102.5 61,-132.5 341,-132.5 341,-102.5 61,-102.5"/>
<text text-anchor="start" x="68" y="-113.9" font-family="Arial" font-size="14.00" fill="#000000">user_id_2    </text>
<text text-anchor="start" x="163.6676" y="-113.9" font-family="Arial" font-size="14.00" fill="#666666">[uuid]</text>
<polygon fill="none" stroke="#000000" points="61,-72.5 61,-102.5 341,-102.5 341,-72.5 61,-72.5"/>
<text text-anchor="start" x="68" y="-83.9" font-family="Arial" font-size="14.00" fill="#000000">id    </text>
<text text-anchor="start" x="113.094" y="-83.9" font-family="Arial" font-size="14.00" fill="#666666">[uuid]</text>
<polygon fill="none" stroke="#000000" points="61,-42.5 61,-72.5 341,-72.5 341,-42.5 61,-42.5"/>
<text text-anchor="start" x="67.9867" y="-53.9" font-family="Arial" font-size="14.00" fill="#000000">created_at    </text>
<text text-anchor="start" x="168.3289" y="-53.9" font-family="Arial" font-size="14.00" fill="#666666">[timestamp with time zone]</text>
</g>
<!-- public.chat_message&#45;&gt;public.chat -->
<g id="edge1" class="edge">
<title>public.chat_message:chat_id&#45;&gt;public.chat:id</title>
<path fill="none" stroke="#000000" d="M366.041,-425.3288C430.0896,-396.3721 413.0839,-87.5 341,-87.5"/>
<polygon fill="#000000" stroke="#000000" points="365.7741,-425.3865 355.0489,-423.1016 360.8871,-426.4432 356,-427.5 356,-427.5 356,-427.5 360.8871,-426.4432 356.9511,-431.8984 365.7741,-425.3865 365.7741,-425.3865"/>
<text text-anchor="start" x="363.1035" y="-437.5" font-family="Arial" font-size="10.00" fill="#000000">FOREIGN KEY (chat_id) REFERENCES chat(id) ON DELETE CASCADE</text>
</g>
</g>
</svg>
