<?xml version="1.0" encoding="UTF-8" standalone="no"?>
<!DOCTYPE svg PUBLIC "-//W3C//DTD SVG 1.1//EN"
 "http://www.w3.org/Graphics/SVG/1.1/DTD/svg11.dtd">
<!-- Generated by graphviz version 2.40.1 (20161225.0304)
 -->
<!-- Title: public.server Pages: 1 -->
<svg width="844pt" height="532pt"
 viewBox="0.00 0.00 843.50 532.00" xmlns="http://www.w3.org/2000/svg" xmlns:xlink="http://www.w3.org/1999/xlink">
<g id="graph0" class="graph" transform="scale(1 1) rotate(0) translate(4 528)">
<title>public.server</title>
<polygon fill="#ffffff" stroke="transparent" points="-4,4 -4,-528 839.5,-528 839.5,4 -4,4"/>
<!-- public.server -->
<g id="node1" class="node">
<title>public.server</title>
<polygon fill="#efefef" stroke="transparent" points="291.5,-165.5 291.5,-200.5 540.5,-200.5 540.5,-165.5 291.5,-165.5"/>
<polygon fill="none" stroke="#000000" points="291.5,-165.5 291.5,-200.5 540.5,-200.5 540.5,-165.5 291.5,-165.5"/>
<text text-anchor="start" x="301.213" y="-178.3" font-family="Arial Bold" font-size="18.00" fill="#000000">public.server</text>
<text text-anchor="start" x="403.219" y="-178.3" font-family="Arial" font-size="14.00" fill="#000000">    </text>
<text text-anchor="start" x="437.4238" y="-178.3" font-family="Arial" font-size="14.00" fill="#666666">[BASE TABLE]</text>
<polygon fill="none" stroke="#000000" points="291.5,-135.5 291.5,-165.5 540.5,-165.5 540.5,-135.5 291.5,-135.5"/>
<text text-anchor="start" x="298.5" y="-146.9" font-family="Arial" font-size="14.00" fill="#000000">title </text>
<text text-anchor="start" x="324.1676" y="-146.9" font-family="Arial" font-size="14.00" fill="#666666">[varchar(255)]</text>
<polygon fill="none" stroke="#000000" points="291.5,-105.5 291.5,-135.5 540.5,-135.5 540.5,-105.5 291.5,-105.5"/>
<text text-anchor="start" x="298.5" y="-116.9" font-family="Arial" font-size="14.00" fill="#000000">owner_id </text>
<text text-anchor="start" x="359.1774" y="-116.9" font-family="Arial" font-size="14.00" fill="#666666">[uuid]</text>
<polygon fill="none" stroke="#000000" points="291.5,-75.5 291.5,-105.5 540.5,-105.5 540.5,-75.5 291.5,-75.5"/>
<text text-anchor="start" x="298.5" y="-86.9" font-family="Arial" font-size="14.00" fill="#000000">id </text>
<text text-anchor="start" x="313.2798" y="-86.9" font-family="Arial" font-size="14.00" fill="#666666">[uuid]</text>
<polygon fill="none" stroke="#000000" points="291.5,-45.5 291.5,-75.5 540.5,-75.5 540.5,-45.5 291.5,-45.5"/>
<text text-anchor="start" x="298.1438" y="-56.9" font-family="Arial" font-size="14.00" fill="#000000">created_at </text>
<text text-anchor="start" x="368.1718" y="-56.9" font-family="Arial" font-size="14.00" fill="#666666">[timestamp with time zone]</text>
<polygon fill="none" stroke="#000000" stroke-width="3" points="289.5,-44.5 289.5,-202.5 541.5,-202.5 541.5,-44.5 289.5,-44.5"/>
</g>
<!-- public.server_member -->
<g id="node2" class="node">
<title>public.server_member</title>
<polygon fill="#efefef" stroke="transparent" points="43.5,-445.5 43.5,-480.5 362.5,-480.5 362.5,-445.5 43.5,-445.5"/>
<polygon fill="none" stroke="#000000" points="43.5,-445.5 43.5,-480.5 362.5,-480.5 362.5,-445.5 43.5,-445.5"/>
<text text-anchor="start" x="50.2123" y="-458.3" font-family="Arial Bold" font-size="18.00" fill="#000000">public.server_member</text>
<text text-anchor="start" x="228.2197" y="-458.3" font-family="Arial" font-size="14.00" fill="#000000">    </text>
<text text-anchor="start" x="262.4245" y="-458.3" font-family="Arial" font-size="14.00" fill="#666666">[BASE TABLE]</text>
<polygon fill="none" stroke="#000000" points="43.5,-415.5 43.5,-445.5 362.5,-445.5 362.5,-415.5 43.5,-415.5"/>
<text text-anchor="start" x="50.5" y="-426.9" font-family="Arial" font-size="14.00" fill="#000000">server_id    </text>
<text text-anchor="start" x="142.263" y="-426.9" font-family="Arial" font-size="14.00" fill="#666666">[uuid]</text>
<polygon fill="none" stroke="#000000" points="43.5,-385.5 43.5,-415.5 362.5,-415.5 362.5,-385.5 43.5,-385.5"/>
<text text-anchor="start" x="50.5" y="-396.9" font-family="Arial" font-size="14.00" fill="#000000">user_id    </text>
<text text-anchor="start" x="130.6024" y="-396.9" font-family="Arial" font-size="14.00" fill="#666666">[uuid]</text>
<polygon fill="none" stroke="#000000" points="43.5,-355.5 43.5,-385.5 362.5,-385.5 362.5,-355.5 43.5,-355.5"/>
<text text-anchor="start" x="50.5" y="-366.9" font-family="Arial" font-size="14.00" fill="#000000">id    </text>
<text text-anchor="start" x="95.594" y="-366.9" font-family="Arial" font-size="14.00" fill="#666666">[uuid]</text>
<polygon fill="none" stroke="#000000" points="43.5,-325.5 43.5,-355.5 362.5,-355.5 362.5,-325.5 43.5,-325.5"/>
<text text-anchor="start" x="50.5" y="-336.9" font-family="Arial" font-size="14.00" fill="#000000">created_at    </text>
<text text-anchor="start" x="150.8422" y="-336.9" font-family="Arial" font-size="14.00" fill="#666666">[timestamp with time zone]</text>
</g>
<!-- public.server_member&#45;&gt;public.server -->
<g id="edge1" class="edge">
<title>public.server_member:server_id&#45;&gt;public.server:id</title>
<path fill="none" stroke="#000000" d="M372.7247,-429.6412C424.506,-420.2339 394.8646,-335.6974 362.5,-283 343.9842,-252.8517 310.0158,-277.1483 291.5,-247 255.0988,-187.73 221.9444,-90.5 291.5,-90.5"/>
<polygon fill="#000000" stroke="#000000" points="372.4649,-429.6629 362.1233,-426.0158 367.4825,-430.0815 362.5,-430.5 362.5,-430.5 362.5,-430.5 367.4825,-430.0815 362.8767,-434.9842 372.4649,-429.6629 372.4649,-429.6629"/>
<text text-anchor="start" x="369.7245" y="-440.5" font-family="Arial" font-size="10.00" fill="#000000">FOREIGN KEY (server_id) REFERENCES server(id) ON DELETE CASCADE</text>
</g>
<!-- public.server_message -->
<g id="node3" class="node">
<title>public.server_message</title>
<polygon fill="#efefef" stroke="transparent" points="466.5,-445.5 466.5,-480.5 792.5,-480.5 792.5,-445.5 466.5,-445.5"/>
<polygon fill="none" stroke="#000000" points="466.5,-445.5 466.5,-480.5 792.5,-480.5 792.5,-445.5 466.5,-445.5"/>
<text text-anchor="start" x="473.2014" y="-458.3" font-family="Arial Bold" font-size="18.00" fill="#000000">public.server_message</text>
<text text-anchor="start" x="658.2306" y="-458.3" font-family="Arial" font-size="14.00" fill="#000000">    </text>
<text text-anchor="start" x="692.4354" y="-458.3" font-family="Arial" font-size="14.00" fill="#666666">[BASE TABLE]</text>
<polygon fill="none" stroke="#000000" points="466.5,-415.5 466.5,-445.5 792.5,-445.5 792.5,-415.5 466.5,-415.5"/>
<text text-anchor="start" x="473.5" y="-426.9" font-family="Arial" font-size="14.00" fill="#000000">server_id    </text>
<text text-anchor="start" x="565.263" y="-426.9" font-family="Arial" font-size="14.00" fill="#666666">[uuid]</text>
<polygon fill="none" stroke="#000000" points="466.5,-385.5 466.5,-415.5 792.5,-415.5 792.5,-385.5 466.5,-385.5"/>
<text text-anchor="start" x="473.5" y="-396.9" font-family="Arial" font-size="14.00" fill="#000000">message    </text>
<text text-anchor="start" x="564.4958" y="-396.9" font-family="Arial" font-size="14.00" fill="#666666">[varchar(1024)]</text>
<polygon fill="none" stroke="#000000" points="466.5,-355.5 466.5,-385.5 792.5,-385.5 792.5,-355.5 466.5,-355.5"/>
<text text-anchor="start" x="473.5" y="-366.9" font-family="Arial" font-size="14.00" fill="#000000">id    </text>
<text text-anchor="start" x="518.594" y="-366.9" font-family="Arial" font-size="14.00" fill="#666666">[uuid]</text>
<polygon fill="none" stroke="#000000" points="466.5,-325.5 466.5,-355.5 792.5,-355.5 792.5,-325.5 466.5,-325.5"/>
<text text-anchor="start" x="473.5" y="-336.9" font-family="Arial" font-size="14.00" fill="#000000">created_at    </text>
<text text-anchor="start" x="573.8422" y="-336.9" font-family="Arial" font-size="14.00" fill="#666666">[timestamp with time zone]</text>
</g>
<!-- public.server_message&#45;&gt;public.server -->
<g id="edge2" class="edge">
<title>public.server_message:server_id&#45;&gt;public.server:id</title>
<path fill="none" stroke="#000000" d="M456.2712,-429.6386C404.445,-420.2034 433.7021,-335.4289 466.5,-283 485.897,-251.993 521.103,-278.007 540.5,-247 577.3885,-188.0321 610.0556,-90.5 540.5,-90.5"/>
<polygon fill="#000000" stroke="#000000" points="456.5353,-429.6607 466.1223,-434.9841 461.5176,-430.0804 466.5,-430.5 466.5,-430.5 466.5,-430.5 461.5176,-430.0804 466.8777,-426.0159 456.5353,-429.6607 456.5353,-429.6607"/>
<text text-anchor="start" x="473.7245" y="-414.5" font-family="Arial" font-size="10.00" fill="#000000">FOREIGN KEY (server_id) REFERENCES server(id) ON DELETE CASCADE</text>
</g>
</g>
</svg>
