<?xml version="1.0" encoding="UTF-8" standalone="no"?>
<!DOCTYPE svg PUBLIC "-//W3C//DTD SVG 1.1//EN"
 "http://www.w3.org/Graphics/SVG/1.1/DTD/svg11.dtd">
<!-- Generated by graphviz version 2.40.1 (20161225.0304)
 -->
<!-- Title: public.server_message Pages: 1 -->
<svg width="739pt" height="532pt"
 viewBox="0.00 0.00 739.00 532.00" xmlns="http://www.w3.org/2000/svg" xmlns:xlink="http://www.w3.org/1999/xlink">
<g id="graph0" class="graph" transform="scale(1 1) rotate(0) translate(4 528)">
<title>public.server_message</title>
<polygon fill="#ffffff" stroke="transparent" points="-4,4 -4,-528 735,-528 735,4 -4,4"/>
<!-- public.server_message -->
<g id="node1" class="node">
<title>public.server_message</title>
<polygon fill="#efefef" stroke="transparent" points="46,-442.5 46,-477.5 372,-477.5 372,-442.5 46,-442.5"/>
<polygon fill="none" stroke="#000000" points="46,-442.5 46,-477.5 372,-477.5 372,-442.5 46,-442.5"/>
<text text-anchor="start" x="52.7014" y="-455.3" font-family="Arial Bold" font-size="18.00" fill="#000000">public.server_message</text>
<text text-anchor="start" x="237.7306" y="-455.3" font-family="Arial" font-size="14.00" fill="#000000">    </text>
<text text-anchor="start" x="271.9354" y="-455.3" font-family="Arial" font-size="14.00" fill="#666666">[BASE TABLE]</text>
<polygon fill="none" stroke="#000000" points="46,-412.5 46,-442.5 372,-442.5 372,-412.5 46,-412.5"/>
<text text-anchor="start" x="53" y="-423.9" font-family="Arial" font-size="14.00" fill="#000000">server_id </text>
<text text-anchor="start" x="114.4488" y="-423.9" font-family="Arial" font-size="14.00" fill="#666666">[uuid]</text>
<polygon fill="none" stroke="#000000" points="46,-382.5 46,-412.5 372,-412.5 372,-382.5 46,-382.5"/>
<text text-anchor="start" x="53" y="-393.9" font-family="Arial" font-size="14.00" fill="#000000">message </text>
<text text-anchor="start" x="113.6816" y="-393.9" font-family="Arial" font-size="14.00" fill="#666666">[varchar(1024)]</text>
<polygon fill="none" stroke="#000000" points="46,-352.5 46,-382.5 372,-382.5 372,-352.5 46,-352.5"/>
<text text-anchor="start" x="53" y="-363.9" font-family="Arial" font-size="14.00" fill="#000000">id </text>
<text text-anchor="start" x="67.7798" y="-363.9" font-family="Arial" font-size="14.00" fill="#666666">[uuid]</text>
<polygon fill="none" stroke="#000000" points="46,-322.5 46,-352.5 372,-352.5 372,-322.5 46,-322.5"/>
<text text-anchor="start" x="53" y="-333.9" font-family="Arial" font-size="14.00" fill="#000000">created_at </text>
<text text-anchor="start" x="123.028" y="-333.9" font-family="Arial" font-size="14.00" fill="#666666">[timestamp with time zone]</text>
<polygon fill="none" stroke="#000000" stroke-width="3" points="44.5,-321.5 44.5,-479.5 373.5,-479.5 373.5,-321.5 44.5,-321.5"/>
</g>
<!-- public.server -->
<g id="node2" class="node">
<title>public.server</title>
<polygon fill="#efefef" stroke="transparent" points="69,-162.5 69,-197.5 349,-197.5 349,-162.5 69,-162.5"/>
<polygon fill="none" stroke="#000000" points="69,-162.5 69,-197.5 349,-197.5 349,-162.5 69,-162.5"/>
<text text-anchor="start" x="94.213" y="-175.3" font-family="Arial Bold" font-size="18.00" fill="#000000">public.server</text>
<text text-anchor="start" x="196.219" y="-175.3" font-family="Arial" font-size="14.00" fill="#000000">    </text>
<text text-anchor="start" x="230.4238" y="-175.3" font-family="Arial" font-size="14.00" fill="#666666">[BASE TABLE]</text>
<polygon fill="none" stroke="#000000" points="69,-132.5 69,-162.5 349,-162.5 349,-132.5 69,-132.5"/>
<text text-anchor="start" x="76" y="-143.9" font-family="Arial" font-size="14.00" fill="#000000">title    </text>
<text text-anchor="start" x="131.9818" y="-143.9" font-family="Arial" font-size="14.00" fill="#666666">[varchar(255)]</text>
<polygon fill="none" stroke="#000000" points="69,-102.5 69,-132.5 349,-132.5 349,-102.5 69,-102.5"/>
<text text-anchor="start" x="76" y="-113.9" font-family="Arial" font-size="14.00" fill="#000000">owner_id    </text>
<text text-anchor="start" x="166.9916" y="-113.9" font-family="Arial" font-size="14.00" fill="#666666">[uuid]</text>
<polygon fill="none" stroke="#000000" points="69,-72.5 69,-102.5 349,-102.5 349,-72.5 69,-72.5"/>
<text text-anchor="start" x="76" y="-83.9" font-family="Arial" font-size="14.00" fill="#000000">id    </text>
<text text-anchor="start" x="121.094" y="-83.9" font-family="Arial" font-size="14.00" fill="#666666">[uuid]</text>
<polygon fill="none" stroke="#000000" points="69,-42.5 69,-72.5 349,-72.5 349,-42.5 69,-42.5"/>
<text text-anchor="start" x="75.9867" y="-53.9" font-family="Arial" font-size="14.00" fill="#000000">created_at    </text>
<text text-anchor="start" x="176.3289" y="-53.9" font-family="Arial" font-size="14.00" fill="#666666">[timestamp with time zone]</text>
</g>
<!-- public.server_message&#45;&gt;public.server -->
<g id="edge1" class="edge">
<title>public.server_message:server_id&#45;&gt;public.server:id</title>
<path fill="none" stroke="#000000" d="M382.0032,-425.3288C445.4561,-396.3721 421.1785,-87.5 349,-87.5"/>
<polygon fill="#000000" stroke="#000000" points="381.7725,-425.3788 371.0455,-423.1024 376.8862,-426.4394 372,-427.5 372,-427.5 372,-427.5 376.8862,-426.4394 372.9545,-431.8976 381.7725,-425.3788 381.7725,-425.3788"/>
<text text-anchor="start" x="379.2245" y="-437.5" font-family="Arial" font-size="10.00" fill="#000000">FOREIGN KEY (server_id) REFERENCES server(id) ON DELETE CASCADE</text>
</g>
</g>
</svg>
