<?xml version="1.0" encoding="UTF-8" standalone="no"?>
<!DOCTYPE svg PUBLIC "-//W3C//DTD SVG 1.1//EN"
 "http://www.w3.org/Graphics/SVG/1.1/DTD/svg11.dtd">
<!-- Generated by graphviz version 2.40.1 (20161225.0304)
 -->
<!-- Title: public.server_member Pages: 1 -->
<svg width="733pt" height="532pt"
 viewBox="0.00 0.00 732.50 532.00" xmlns="http://www.w3.org/2000/svg" xmlns:xlink="http://www.w3.org/1999/xlink">
<g id="graph0" class="graph" transform="scale(1 1) rotate(0) translate(4 528)">
<title>public.server_member</title>
<polygon fill="#ffffff" stroke="transparent" points="-4,4 -4,-528 728.5,-528 728.5,4 -4,4"/>
<!-- public.server_member -->
<g id="node1" class="node">
<title>public.server_member</title>
<polygon fill="#efefef" stroke="transparent" points="46.5,-442.5 46.5,-477.5 365.5,-477.5 365.5,-442.5 46.5,-442.5"/>
<polygon fill="none" stroke="#000000" points="46.5,-442.5 46.5,-477.5 365.5,-477.5 365.5,-442.5 46.5,-442.5"/>
<text text-anchor="start" x="53.2123" y="-455.3" font-family="Arial Bold" font-size="18.00" fill="#000000">public.server_member</text>
<text text-anchor="start" x="231.2197" y="-455.3" font-family="Arial" font-size="14.00" fill="#000000">    </text>
<text text-anchor="start" x="265.4245" y="-455.3" font-family="Arial" font-size="14.00" fill="#666666">[BASE TABLE]</text>
<polygon fill="none" stroke="#000000" points="46.5,-412.5 46.5,-442.5 365.5,-442.5 365.5,-412.5 46.5,-412.5"/>
<text text-anchor="start" x="53.5" y="-423.9" font-family="Arial" font-size="14.00" fill="#000000">server_id </text>
<text text-anchor="start" x="114.9488" y="-423.9" font-family="Arial" font-size="14.00" fill="#666666">[uuid]</text>
<polygon fill="none" stroke="#000000" points="46.5,-382.5 46.5,-412.5 365.5,-412.5 365.5,-382.5 46.5,-382.5"/>
<text text-anchor="start" x="53.5" y="-393.9" font-family="Arial" font-size="14.00" fill="#000000">user_id </text>
<text text-anchor="start" x="103.2882" y="-393.9" font-family="Arial" font-size="14.00" fill="#666666">[uuid]</text>
<polygon fill="none" stroke="#000000" points="46.5,-352.5 46.5,-382.5 365.5,-382.5 365.5,-352.5 46.5,-352.5"/>
<text text-anchor="start" x="53.5" y="-363.9" font-family="Arial" font-size="14.00" fill="#000000">id </text>
<text text-anchor="start" x="68.2798" y="-363.9" font-family="Arial" font-size="14.00" fill="#666666">[uuid]</text>
<polygon fill="none" stroke="#000000" points="46.5,-322.5 46.5,-352.5 365.5,-352.5 365.5,-322.5 46.5,-322.5"/>
<text text-anchor="start" x="53.5" y="-333.9" font-family="Arial" font-size="14.00" fill="#000000">created_at </text>
<text text-anchor="start" x="123.528" y="-333.9" font-family="Arial" font-size="14.00" fill="#666666">[timestamp with time zone]</text>
<polygon fill="none" stroke="#000000" stroke-width="3" points="44.5,-321.5 44.5,-479.5 366.5,-479.5 366.5,-321.5 44.5,-321.5"/>
</g>
<!-- public.server -->
<g id="node2" class="node">
<title>public.server</title>
<polygon fill="#efefef" stroke="transparent" points="66.5,-162.5 66.5,-197.5 346.5,-197.5 346.5,-162.5 66.5,-162.5"/>
<polygon fill="none" stroke="#000000" points="66.5,-162.5 66.5,-197.5 346.5,-197.5 346.5,-162.5 66.5,-162.5"/>
<text text-anchor="start" x="91.713" y="-175.3" font-family="Arial Bold" font-size="18.00" fill="#000000">public.server</text>
<text text-anchor="start" x="193.719" y="-175.3" font-family="Arial" font-size="14.00" fill="#000000">    </text>
<text text-anchor="start" x="227.9238" y="-175.3" font-family="Arial" font-size="14.00" fill="#666666">[BASE TABLE]</text>
<polygon fill="none" stroke="#000000" points="66.5,-132.5 66.5,-162.5 346.5,-162.5 346.5,-132.5 66.5,-132.5"/>
<text text-anchor="start" x="73.5" y="-143.9" font-family="Arial" font-size="14.00" fill="#000000">title    </text>
<text text-anchor="start" x="129.4818" y="-143.9" font-family="Arial" font-size="14.00" fill="#666666">[varchar(255)]</text>
<polygon fill="none" stroke="#000000" points="66.5,-102.5 66.5,-132.5 346.5,-132.5 346.5,-102.5 66.5,-102.5"/>
<text text-anchor="start" x="73.5" y="-113.9" font-family="Arial" font-size="14.00" fill="#000000">owner_id    </text>
<text text-anchor="start" x="164.4916" y="-113.9" font-family="Arial" font-size="14.00" fill="#666666">[uuid]</text>
<polygon fill="none" stroke="#000000" points="66.5,-72.5 66.5,-102.5 346.5,-102.5 346.5,-72.5 66.5,-72.5"/>
<text text-anchor="start" x="73.5" y="-83.9" font-family="Arial" font-size="14.00" fill="#000000">id    </text>
<text text-anchor="start" x="118.594" y="-83.9" font-family="Arial" font-size="14.00" fill="#666666">[uuid]</text>
<polygon fill="none" stroke="#000000" points="66.5,-42.5 66.5,-72.5 346.5,-72.5 346.5,-42.5 66.5,-42.5"/>
<text text-anchor="start" x="73.4867" y="-53.9" font-family="Arial" font-size="14.00" fill="#000000">created_at    </text>
<text text-anchor="start" x="173.8289" y="-53.9" font-family="Arial" font-size="14.00" fill="#666666">[timestamp with time zone]</text>
</g>
<!-- public.server_member&#45;&gt;public.server -->
<g id="edge1" class="edge">
<title>public.server_member:server_id&#45;&gt;public.server:id</title>
<path fill="none" stroke="#000000" d="M375.6829,-426.6234C429.8616,-416.6635 407.4536,-324.3079 365.5,-277 276.6916,-176.8575 155.3084,-341.1425 66.5,-241 21.2346,-189.9577 -1.7222,-87.5 66.5,-87.5"/>
<polygon fill="#000000" stroke="#000000" points="375.4631,-426.6422 365.114,-423.0166 370.4816,-427.0711 365.5,-427.5 365.5,-427.5 365.5,-427.5 370.4816,-427.0711 365.886,-431.9834 375.4631,-426.6422 375.4631,-426.6422"/>
<text text-anchor="start" x="372.7245" y="-437.5" font-family="Arial" font-size="10.00" fill="#000000">FOREIGN KEY (server_id) REFERENCES server(id) ON DELETE CASCADE</text>
</g>
</g>
</svg>
