<?xml version="1.0" encoding="UTF-8" standalone="no"?>
<!DOCTYPE svg PUBLIC "-//W3C//DTD SVG 1.1//EN"
 "http://www.w3.org/Graphics/SVG/1.1/DTD/svg11.dtd">
<!-- Generated by graphviz version 2.40.1 (20161225.0304)
 -->
<!-- Title: public.chat Pages: 1 -->
<svg width="702pt" height="532pt"
 viewBox="0.00 0.00 702.00 532.00" xmlns="http://www.w3.org/2000/svg" xmlns:xlink="http://www.w3.org/1999/xlink">
<g id="graph0" class="graph" transform="scale(1 1) rotate(0) translate(4 528)">
<title>public.chat</title>
<polygon fill="#ffffff" stroke="transparent" points="-4,4 -4,-528 698,-528 698,4 -4,4"/>
<!-- public.chat -->
<g id="node1" class="node">
<title>public.chat</title>
<polygon fill="#efefef" stroke="transparent" points="371,-165.5 371,-200.5 620,-200.5 620,-165.5 371,-165.5"/>
<polygon fill="none" stroke="#000000" points="371,-165.5 371,-200.5 620,-200.5 620,-165.5 371,-165.5"/>
<text text-anchor="start" x="388.7041" y="-178.3" font-family="Arial Bold" font-size="18.00" fill="#000000">public.chat</text>
<text text-anchor="start" x="474.7279" y="-178.3" font-family="Arial" font-size="14.00" fill="#000000">    </text>
<text text-anchor="start" x="508.9327" y="-178.3" font-family="Arial" font-size="14.00" fill="#666666">[BASE TABLE]</text>
<polygon fill="none" stroke="#000000" points="371,-135.5 371,-165.5 620,-165.5 620,-135.5 371,-135.5"/>
<text text-anchor="start" x="378" y="-146.9" font-family="Arial" font-size="14.00" fill="#000000">user_id_1 </text>
<text text-anchor="start" x="443.3534" y="-146.9" font-family="Arial" font-size="14.00" fill="#666666">[uuid]</text>
<polygon fill="none" stroke="#000000" points="371,-105.5 371,-135.5 620,-135.5 620,-105.5 371,-105.5"/>
<text text-anchor="start" x="378" y="-116.9" font-family="Arial" font-size="14.00" fill="#000000">user_id_2 </text>
<text text-anchor="start" x="443.3534" y="-116.9" font-family="Arial" font-size="14.00" fill="#666666">[uuid]</text>
<polygon fill="none" stroke="#000000" points="371,-75.5 371,-105.5 620,-105.5 620,-75.5 371,-75.5"/>
<text text-anchor="start" x="378" y="-86.9" font-family="Arial" font-size="14.00" fill="#000000">id </text>
<text text-anchor="start" x="392.7798" y="-86.9" font-family="Arial" font-size="14.00" fill="#666666">[uuid]</text>
<polygon fill="none" stroke="#000000" points="371,-45.5 371,-75.5 620,-75.5 620,-45.5 371,-45.5"/>
<text text-anchor="start" x="377.6438" y="-56.9" font-family="Arial" font-size="14.00" fill="#000000">created_at </text>
<text text-anchor="start" x="447.6718" y="-56.9" font-family="Arial" font-size="14.00" fill="#666666">[timestamp with time zone]</text>
<polygon fill="none" stroke="#000000" stroke-width="3" points="369,-44.5 369,-202.5 621,-202.5 621,-44.5 369,-44.5"/>
</g>
<!-- public.chat_message -->
<g id="node2" class="node">
<title>public.chat_message</title>
<polygon fill="#efefef" stroke="transparent" points="341,-445.5 341,-480.5 651,-480.5 651,-445.5 341,-445.5"/>
<polygon fill="none" stroke="#000000" points="341,-445.5 341,-480.5 651,-480.5 651,-445.5 341,-445.5"/>
<text text-anchor="start" x="347.6925" y="-458.3" font-family="Arial Bold" font-size="18.00" fill="#000000">public.chat_message</text>
<text text-anchor="start" x="516.7395" y="-458.3" font-family="Arial" font-size="14.00" fill="#000000">    </text>
<text text-anchor="start" x="550.9443" y="-458.3" font-family="Arial" font-size="14.00" fill="#666666">[BASE TABLE]</text>
<polygon fill="none" stroke="#000000" points="341,-415.5 341,-445.5 651,-445.5 651,-415.5 341,-415.5"/>
<text text-anchor="start" x="348" y="-426.9" font-family="Arial" font-size="14.00" fill="#000000">chat_id    </text>
<text text-anchor="start" x="427.3324" y="-426.9" font-family="Arial" font-size="14.00" fill="#666666">[uuid]</text>
<polygon fill="none" stroke="#000000" points="341,-385.5 341,-415.5 651,-415.5 651,-385.5 341,-385.5"/>
<text text-anchor="start" x="348" y="-396.9" font-family="Arial" font-size="14.00" fill="#000000">message    </text>
<text text-anchor="start" x="438.9958" y="-396.9" font-family="Arial" font-size="14.00" fill="#666666">[varchar(1024)]</text>
<polygon fill="none" stroke="#000000" points="341,-355.5 341,-385.5 651,-385.5 651,-355.5 341,-355.5"/>
<text text-anchor="start" x="348" y="-366.9" font-family="Arial" font-size="14.00" fill="#000000">id    </text>
<text text-anchor="start" x="393.094" y="-366.9" font-family="Arial" font-size="14.00" fill="#666666">[uuid]</text>
<polygon fill="none" stroke="#000000" points="341,-325.5 341,-355.5 651,-355.5 651,-325.5 341,-325.5"/>
<text text-anchor="start" x="348" y="-336.9" font-family="Arial" font-size="14.00" fill="#000000">created_at    </text>
<text text-anchor="start" x="448.3422" y="-336.9" font-family="Arial" font-size="14.00" fill="#666666">[timestamp with time zone]</text>
</g>
<!-- public.chat_message&#45;&gt;public.chat -->
<g id="edge1" class="edge">
<title>public.chat_message:chat_id&#45;&gt;public.chat:id</title>
<path fill="none" stroke="#000000" d="M331.0218,-429.6424C277.9429,-419.8985 300.08,-329.5392 341,-283 423.5577,-189.1053 537.4423,-340.8947 620,-247 665.9285,-194.7645 689.5556,-90.5 620,-90.5"/>
<polygon fill="#000000" stroke="#000000" points="331.0367,-429.6436 340.6146,-434.9835 336.0184,-430.0718 341,-430.5 341,-430.5 341,-430.5 336.0184,-430.0718 341.3854,-426.0165 331.0367,-429.6436 331.0367,-429.6436"/>
<text text-anchor="start" x="7.1035" y="-440.5" font-family="Arial" font-size="10.00" fill="#000000">FOREIGN KEY (chat_id) REFERENCES chat(id) ON DELETE CASCADE</text>
</g>
</g>
</svg>
