<?xml version="1.0" encoding="UTF-8" standalone="no"?>
<!DOCTYPE svg PUBLIC "-//W3C//DTD SVG 1.1//EN"
 "http://www.w3.org/Graphics/SVG/1.1/DTD/svg11.dtd">
<!-- Generated by graphviz version 2.40.1 (20161225.0304)
 -->
<!-- Title: chat_service Pages: 1 -->
<svg width="1556pt" height="526pt"
 viewBox="0.00 0.00 1555.50 526.00" xmlns="http://www.w3.org/2000/svg" xmlns:xlink="http://www.w3.org/1999/xlink">
<g id="graph0" class="graph" transform="scale(1 1) rotate(0) translate(4 522)">
<title>chat_service</title>
<polygon fill="#ffffff" stroke="transparent" points="-4,4 -4,-522 1551.5,-522 1551.5,4 -4,4"/>
<!-- public.server -->
<g id="node1" class="node">
<title>public.server</title>
<polygon fill="#efefef" stroke="transparent" points="276.5,-162.5 276.5,-197.5 556.5,-197.5 556.5,-162.5 276.5,-162.5"/>
<polygon fill="none" stroke="#000000" points="276.5,-162.5 276.5,-197.5 556.5,-197.5 556.5,-162.5 276.5,-162.5"/>
<text text-anchor="start" x="301.713" y="-175.3" font-family="Arial Bold" font-size="18.00" fill="#000000">public.server</text>
<text text-anchor="start" x="403.719" y="-175.3" font-family="Arial" font-size="14.00" fill="#000000">    </text>
<text text-anchor="start" x="437.9238" y="-175.3" font-family="Arial" font-size="14.00" fill="#666666">[BASE TABLE]</text>
<polygon fill="none" stroke="#000000" points="276.5,-132.5 276.5,-162.5 556.5,-162.5 556.5,-132.5 276.5,-132.5"/>
<text text-anchor="start" x="283.5" y="-143.9" font-family="Arial" font-size="14.00" fill="#000000">title    </text>
<text text-anchor="start" x="339.4818" y="-143.9" font-family="Arial" font-size="14.00" fill="#666666">[varchar(255)]</text>
<polygon fill="none" stroke="#000000" points="276.5,-102.5 276.5,-132.5 556.5,-132.5 556.5,-102.5 276.5,-102.5"/>
<text text-anchor="start" x="283.5" y="-113.9" font-family="Arial" font-size="14.00" fill="#000000">owner_id    </text>
<text text-anchor="start" x="374.4916" y="-113.9" font-family="Arial" font-size="14.00" fill="#666666">[uuid]</text>
<polygon fill="none" stroke="#000000" points="276.5,-72.5 276.5,-102.5 556.5,-102.5 556.5,-72.5 276.5,-72.5"/>
<text text-anchor="start" x="283.5" y="-83.9" font-family="Arial" font-size="14.00" fill="#000000">id    </text>
<text text-anchor="start" x="328.594" y="-83.9" font-family="Arial" font-size="14.00" fill="#666666">[uuid]</text>
<polygon fill="none" stroke="#000000" points="276.5,-42.5 276.5,-72.5 556.5,-72.5 556.5,-42.5 276.5,-42.5"/>
<text text-anchor="start" x="283.4867" y="-53.9" font-family="Arial" font-size="14.00" fill="#000000">created_at    </text>
<text text-anchor="start" x="383.8289" y="-53.9" font-family="Arial" font-size="14.00" fill="#666666">[timestamp with time zone]</text>
</g>
<!-- public.chat -->
<g id="node2" class="node">
<title>public.chat</title>
<polygon fill="#efefef" stroke="transparent" points="911.5,-162.5 911.5,-197.5 1191.5,-197.5 1191.5,-162.5 911.5,-162.5"/>
<polygon fill="none" stroke="#000000" points="911.5,-162.5 911.5,-197.5 1191.5,-197.5 1191.5,-162.5 911.5,-162.5"/>
<text text-anchor="start" x="944.7041" y="-175.3" font-family="Arial Bold" font-size="18.00" fill="#000000">public.chat</text>
<text text-anchor="start" x="1030.7279" y="-175.3" font-family="Arial" font-size="14.00" fill="#000000">    </text>
<text text-anchor="start" x="1064.9327" y="-175.3" font-family="Arial" font-size="14.00" fill="#666666">[BASE TABLE]</text>
<polygon fill="none" stroke="#000000" points="911.5,-132.5 911.5,-162.5 1191.5,-162.5 1191.5,-132.5 911.5,-132.5"/>
<text text-anchor="start" x="918.5" y="-143.9" font-family="Arial" font-size="14.00" fill="#000000">user_id_1    </text>
<text text-anchor="start" x="1014.1676" y="-143.9" font-family="Arial" font-size="14.00" fill="#666666">[uuid]</text>
<polygon fill="none" stroke="#000000" points="911.5,-102.5 911.5,-132.5 1191.5,-132.5 1191.5,-102.5 911.5,-102.5"/>
<text text-anchor="start" x="918.5" y="-113.9" font-family="Arial" font-size="14.00" fill="#000000">user_id_2    </text>
<text text-anchor="start" x="1014.1676" y="-113.9" font-family="Arial" font-size="14.00" fill="#666666">[uuid]</text>
<polygon fill="none" stroke="#000000" points="911.5,-72.5 911.5,-102.5 1191.5,-102.5 1191.5,-72.5 911.5,-72.5"/>
<text text-anchor="start" x="918.5" y="-83.9" font-family="Arial" font-size="14.00" fill="#000000">id    </text>
<text text-anchor="start" x="963.594" y="-83.9" font-family="Arial" font-size="14.00" fill="#666666">[uuid]</text>
<polygon fill="none" stroke="#000000" points="911.5,-42.5 911.5,-72.5 1191.5,-72.5 1191.5,-42.5 911.5,-42.5"/>
<text text-anchor="start" x="918.4867" y="-53.9" font-family="Arial" font-size="14.00" fill="#000000">created_at    </text>
<text text-anchor="start" x="1018.8289" y="-53.9" font-family="Arial" font-size="14.00" fill="#666666">[timestamp with time zone]</text>
</g>
<!-- public.server_member -->
<g id="node3" class="node">
<title>public.server_member</title>
<polygon fill="#efefef" stroke="transparent" points="43.5,-439.5 43.5,-474.5 362.5,-474.5 362.5,-439.5 43.5,-439.5"/>
<polygon fill="none" stroke="#000000" points="43.5,-439.5 43.5,-474.5 362.5,-474.5 362.5,-439.5 43.5,-439.5"/>
<text text-anchor="start" x="50.2123" y="-452.3" font-family="Arial Bold" font-size="18.00" fill="#000000">public.server_member</text>
<text text-anchor="start" x="228.2197" y="-452.3" font-family="Arial" font-size="14.00" fill="#000000">    </text>
<text text-anchor="start" x="262.4245" y="-452.3" font-family="Arial" font-size="14.00" fill="#666666">[BASE TABLE]</text>
<polygon fill="none" stroke="#000000" points="43.5,-409.5 43.5,-439.5 362.5,-439.5 362.5,-409.5 43.5,-409.5"/>
<text text-anchor="start" x="50.5" y="-420.9" font-family="Arial" font-size="14.00" fill="#000000">server_id    </text>
<text text-anchor="start" x="142.263" y="-420.9" font-family="Arial" font-size="14.00" fill="#666666">[uuid]</text>
<polygon fill="none" stroke="#000000" points="43.5,-379.5 43.5,-409.5 362.5,-409.5 362.5,-379.5 43.5,-379.5"/>
<text text-anchor="start" x="50.5" y="-390.9" font-family="Arial" font-size="14.00" fill="#000000">user_id    </text>
<text text-anchor="start" x="130.6024" y="-390.9" font-family="Arial" font-size="14.00" fill="#666666">[uuid]</text>
<polygon fill="none" stroke="#000000" points="43.5,-349.5 43.5,-379.5 362.5,-379.5 362.5,-349.5 43.5,-349.5"/>
<text text-anchor="start" x="50.5" y="-360.9" font-family="Arial" font-size="14.00" fill="#000000">id    </text>
<text text-anchor="start" x="95.594" y="-360.9" font-family="Arial" font-size="14.00" fill="#666666">[uuid]</text>
<polygon fill="none" stroke="#000000" points="43.5,-319.5 43.5,-349.5 362.5,-349.5 362.5,-319.5 43.5,-319.5"/>
<text text-anchor="start" x="50.5" y="-330.9" font-family="Arial" font-size="14.00" fill="#000000">created_at    </text>
<text text-anchor="start" x="150.8422" y="-330.9" font-family="Arial" font-size="14.00" fill="#666666">[timestamp with time zone]</text>
</g>
<!-- public.server_member&#45;&gt;public.server -->
<g id="edge1" class="edge">
<title>public.server_member:server_id&#45;&gt;public.server:id</title>
<path fill="none" stroke="#000000" d="M372.7429,-423.6295C424.7208,-414.0964 396.7616,-328.4843 362.5,-277 339.5439,-242.5043 299.4561,-275.4957 276.5,-241 238.704,-184.2045 208.2778,-87.5 276.5,-87.5"/>
<polygon fill="#000000" stroke="#000000" points="372.4641,-423.6531 362.1189,-420.0162 367.482,-424.0766 362.5,-424.5 362.5,-424.5 362.5,-424.5 367.482,-424.0766 362.8811,-428.9838 372.4641,-423.6531 372.4641,-423.6531"/>
<text text-anchor="start" x="369.7245" y="-434.5" font-family="Arial" font-size="10.00" fill="#000000">FOREIGN KEY (server_id) REFERENCES server(id) ON DELETE CASCADE</text>
</g>
<!-- public.chat_message -->
<g id="node4" class="node">
<title>public.chat_message</title>
<polygon fill="#efefef" stroke="transparent" points="896.5,-439.5 896.5,-474.5 1206.5,-474.5 1206.5,-439.5 896.5,-439.5"/>
<polygon fill="none" stroke="#000000" points="896.5,-439.5 896.5,-474.5 1206.5,-474.5 1206.5,-439.5 896.5,-439.5"/>
<text text-anchor="start" x="903.1925" y="-452.3" font-family="Arial Bold" font-size="18.00" fill="#000000">public.chat_message</text>
<text text-anchor="start" x="1072.2395" y="-452.3" font-family="Arial" font-size="14.00" fill="#000000">    </text>
<text text-anchor="start" x="1106.4443" y="-452.3" font-family="Arial" font-size="14.00" fill="#666666">[BASE TABLE]</text>
<polygon fill="none" stroke="#000000" points="896.5,-409.5 896.5,-439.5 1206.5,-439.5 1206.5,-409.5 896.5,-409.5"/>
<text text-anchor="start" x="903.5" y="-420.9" font-family="Arial" font-size="14.00" fill="#000000">chat_id    </text>
<text text-anchor="start" x="982.8324" y="-420.9" font-family="Arial" font-size="14.00" fill="#666666">[uuid]</text>
<polygon fill="none" stroke="#000000" points="896.5,-379.5 896.5,-409.5 1206.5,-409.5 1206.5,-379.5 896.5,-379.5"/>
<text text-anchor="start" x="903.5" y="-390.9" font-family="Arial" font-size="14.00" fill="#000000">message    </text>
<text text-anchor="start" x="994.4958" y="-390.9" font-family="Arial" font-size="14.00" fill="#666666">[varchar(1024)]</text>
<polygon fill="none" stroke="#000000" points="896.5,-349.5 896.5,-379.5 1206.5,-379.5 1206.5,-349.5 896.5,-349.5"/>
<text text-anchor="start" x="903.5" y="-360.9" font-family="Arial" font-size="14.00" fill="#000000">id    </text>
<text text-anchor="start" x="948.594" y="-360.9" font-family="Arial" font-size="14.00" fill="#666666">[uuid]</text>
<polygon fill="none" stroke="#000000" points="896.5,-319.5 896.5,-349.5 1206.5,-349.5 1206.5,-319.5 896.5,-319.5"/>
<text text-anchor="start" x="903.5" y="-330.9" font-family="Arial" font-size="14.00" fill="#000000">created_at    </text>
<text text-anchor="start" x="1003.8422" y="-330.9" font-family="Arial" font-size="14.00" fill="#666666">[timestamp with time zone]</text>
</g>
<!-- public.chat_message&#45;&gt;public.chat -->
<g id="edge2" class="edge">
<title>public.chat_message:chat_id&#45;&gt;public.chat:id</title>
<path fill="none" stroke="#000000" d="M1216.4517,-422.348C1279.925,-393.6467 1262.9491,-87.5 1191.5,-87.5"/>
<polygon fill="#000000" stroke="#000000" points="1216.2741,-422.3863 1205.5488,-420.1017 1211.387,-423.4432 1206.5,-424.5 1206.5,-424.5 1206.5,-424.5 1211.387,-423.4432 1207.4512,-428.8983 1216.2741,-422.3863 1216.2741,-422.3863"/>
<text text-anchor="start" x="1213.6035" y="-434.5" font-family="Arial" font-size="10.00" fill="#000000">FOREIGN KEY (chat_id) REFERENCES chat(id) ON DELETE CASCADE</text>
</g>
<!-- public.server_message -->
<g id="node5" class="node">
<title>public.server_message</title>
<polygon fill="#efefef" stroke="transparent" points="466.5,-439.5 466.5,-474.5 792.5,-474.5 792.5,-439.5 466.5,-439.5"/>
<polygon fill="none" stroke="#000000" points="466.5,-439.5 466.5,-474.5 792.5,-474.5 792.5,-439.5 466.5,-439.5"/>
<text text-anchor="start" x="473.2014" y="-452.3" font-family="Arial Bold" font-size="18.00" fill="#000000">public.server_message</text>
<text text-anchor="start" x="658.2306" y="-452.3" font-family="Arial" font-size="14.00" fill="#000000">    </text>
<text text-anchor="start" x="692.4354" y="-452.3" font-family="Arial" font-size="14.00" fill="#666666">[BASE TABLE]</text>
<polygon fill="none" stroke="#000000" points="466.5,-409.5 466.5,-439.5 792.5,-439.5 792.5,-409.5 466.5,-409.5"/>
<text text-anchor="start" x="473.5" y="-420.9" font-family="Arial" font-size="14.00" fill="#000000">server_id    </text>
<text text-anchor="start" x="565.263" y="-420.9" font-family="Arial" font-size="14.00" fill="#666666">[uuid]</text>
<polygon fill="none" stroke="#000000" points="466.5,-379.5 466.5,-409.5 792.5,-409.5 792.5,-379.5 466.5,-379.5"/>
<text text-anchor="start" x="473.5" y="-390.9" font-family="Arial" font-size="14.00" fill="#000000">message    </text>
<text text-anchor="start" x="564.4958" y="-390.9" font-family="Arial" font-size="14.00" fill="#666666">[varchar(1024)]</text>
<polygon fill="none" stroke="#000000" points="466.5,-349.5 466.5,-379.5 792.5,-379.5 792.5,-349.5 466.5,-349.5"/>
<text text-anchor="start" x="473.5" y="-360.9" font-family="Arial" font-size="14.00" fill="#000000">id    </text>
<text text-anchor="start" x="518.594" y="-360.9" font-family="Arial" font-size="14.00" fill="#666666">[uuid]</text>
<polygon fill="none" stroke="#000000" points="466.5,-319.5 466.5,-349.5 792.5,-349.5 792.5,-319.5 466.5,-319.5"/>
<text text-anchor="start" x="473.5" y="-330.9" font-family="Arial" font-size="14.00" fill="#000000">created_at    </text>
<text text-anchor="start" x="573.8422" y="-330.9" font-family="Arial" font-size="14.00" fill="#666666">[timestamp with time zone]</text>
</g>
<!-- public.server_message&#45;&gt;public.server -->
<g id="edge3" class="edge">
<title>public.server_message:server_id&#45;&gt;public.server:id</title>
<path fill="none" stroke="#000000" d="M456.2531,-423.6269C404.2328,-414.0653 431.8293,-328.2097 466.5,-277 490.6526,-241.3258 532.3474,-276.6742 556.5,-241 594.7473,-184.5074 624.7222,-87.5 556.5,-87.5"/>
<polygon fill="#000000" stroke="#000000" points="456.5361,-423.6509 466.1179,-428.9838 461.5181,-424.0754 466.5,-424.5 466.5,-424.5 466.5,-424.5 461.5181,-424.0754 466.8821,-420.0162 456.5361,-423.6509 456.5361,-423.6509"/>
<text text-anchor="start" x="473.7245" y="-408.5" font-family="Arial" font-size="10.00" fill="#000000">FOREIGN KEY (server_id) REFERENCES server(id) ON DELETE CASCADE</text>
</g>
</g>
</svg>
