<?xml version="1.0" encoding="UTF-8" standalone="no"?>
<!DOCTYPE svg PUBLIC "-//W3C//DTD SVG 1.1//EN"
 "http://www.w3.org/Graphics/SVG/1.1/DTD/svg11.dtd">
<!-- Generated by graphviz version 2.40.1 (20161225.0304)
 -->
<!-- Title: auth Pages: 1 -->
<svg width="796pt" height="279pt"
 viewBox="0.00 0.00 796.00 279.00" xmlns="http://www.w3.org/2000/svg" xmlns:xlink="http://www.w3.org/1999/xlink">
<g id="graph0" class="graph" transform="scale(1 1) rotate(0) translate(4 275)">
<title>auth</title>
<polygon fill="#ffffff" stroke="transparent" points="-4,4 -4,-275 792,-275 792,4 -4,4"/>
<!-- public.users -->
<g id="node1" class="node">
<title>public.users</title>
<polygon fill="#efefef" stroke="transparent" points="43.5,-192.5 43.5,-227.5 342.5,-227.5 342.5,-192.5 43.5,-192.5"/>
<polygon fill="none" stroke="#000000" points="43.5,-192.5 43.5,-227.5 342.5,-227.5 342.5,-192.5 43.5,-192.5"/>
<text text-anchor="start" x="81.2091" y="-205.3" font-family="Arial Bold" font-size="18.00" fill="#000000">public.users</text>
<text text-anchor="start" x="177.2229" y="-205.3" font-family="Arial" font-size="14.00" fill="#000000">    </text>
<text text-anchor="start" x="211.4277" y="-205.3" font-family="Arial" font-size="14.00" fill="#666666">[BASE TABLE]</text>
<polygon fill="none" stroke="#000000" points="43.5,-162.5 43.5,-192.5 342.5,-192.5 342.5,-162.5 43.5,-162.5"/>
<text text-anchor="start" x="50.5" y="-173.9" font-family="Arial" font-size="14.00" fill="#000000">id    </text>
<text text-anchor="start" x="95.594" y="-173.9" font-family="Arial" font-size="14.00" fill="#666666">[uuid]</text>
<polygon fill="none" stroke="#000000" points="43.5,-132.5 43.5,-162.5 342.5,-162.5 342.5,-132.5 43.5,-132.5"/>
<text text-anchor="start" x="50.5" y="-143.9" font-family="Arial" font-size="14.00" fill="#000000">username    </text>
<text text-anchor="start" x="146.939" y="-143.9" font-family="Arial" font-size="14.00" fill="#666666">[varchar(50)]</text>
<polygon fill="none" stroke="#000000" points="43.5,-102.5 43.5,-132.5 342.5,-132.5 342.5,-102.5 43.5,-102.5"/>
<text text-anchor="start" x="50.5" y="-113.9" font-family="Arial" font-size="14.00" fill="#000000">email    </text>
<text text-anchor="start" x="118.1438" y="-113.9" font-family="Arial" font-size="14.00" fill="#666666">[varchar(255)]</text>
<polygon fill="none" stroke="#000000" points="43.5,-72.5 43.5,-102.5 342.5,-102.5 342.5,-72.5 43.5,-72.5"/>
<text text-anchor="start" x="50.5" y="-83.9" font-family="Arial" font-size="14.00" fill="#000000">password    </text>
<text text-anchor="start" x="144.6024" y="-83.9" font-family="Arial" font-size="14.00" fill="#666666">[varchar(255)]</text>
<polygon fill="none" stroke="#000000" points="43.5,-42.5 43.5,-72.5 342.5,-72.5 342.5,-42.5 43.5,-42.5"/>
<text text-anchor="start" x="50.2588" y="-53.9" font-family="Arial" font-size="14.00" fill="#000000">created_at    </text>
<text text-anchor="start" x="150.601" y="-53.9" font-family="Arial" font-size="14.00" fill="#666666">[timestamp without time zone]</text>
</g>
<!-- public.user_deletes -->
<g id="node2" class="node">
<title>public.user_deletes</title>
<polygon fill="#efefef" stroke="transparent" points="446.5,-147.5 446.5,-182.5 745.5,-182.5 745.5,-147.5 446.5,-147.5"/>
<polygon fill="none" stroke="#000000" points="446.5,-147.5 446.5,-182.5 745.5,-182.5 745.5,-147.5 446.5,-147.5"/>
<text text-anchor="start" x="454.6954" y="-160.3" font-family="Arial Bold" font-size="18.00" fill="#000000">public.user_deletes</text>
<text text-anchor="start" x="609.7366" y="-160.3" font-family="Arial" font-size="14.00" fill="#000000">    </text>
<text text-anchor="start" x="643.9414" y="-160.3" font-family="Arial" font-size="14.00" fill="#666666">[BASE TABLE]</text>
<polygon fill="none" stroke="#000000" points="446.5,-117.5 446.5,-147.5 745.5,-147.5 745.5,-117.5 446.5,-117.5"/>
<text text-anchor="start" x="453.5" y="-128.9" font-family="Arial" font-size="14.00" fill="#000000">id    </text>
<text text-anchor="start" x="498.594" y="-128.9" font-family="Arial" font-size="14.00" fill="#666666">[uuid]</text>
<polygon fill="none" stroke="#000000" points="446.5,-87.5 446.5,-117.5 745.5,-117.5 745.5,-87.5 446.5,-87.5"/>
<text text-anchor="start" x="453.2588" y="-98.9" font-family="Arial" font-size="14.00" fill="#000000">created_at    </text>
<text text-anchor="start" x="553.601" y="-98.9" font-family="Arial" font-size="14.00" fill="#666666">[timestamp without time zone]</text>
</g>
</g>
</svg>
